inDegrees=no
num_controls=7
num_derivatives=13
num_iterations=142
num_multipliers=7
num_parameters=0
num_slacks=7
num_states=26
objective=6.564740
objective_accelerations=0.706588
objective_balance=0.038850
objective_effort=0.556456
objective_height=5.144285
objective_ligament=0.118561
solver_duration=1288.405525
status=Solve_Succeeded
success=true
DataType=double
version=3
OpenSimVersion=4.4-2022-07-23-0e9fedc
endheader
time	/jointset/ground_pelvis/pelvis_tilt/value	/jointset/ground_pelvis/pelvis_tx/value	/jointset/ground_pelvis/pelvis_ty/value	/jointset/hip_r/hip_flexion_r/value	/jointset/hip_r/hip_adduction_r/value	/jointset/hip_r/hip_rotation_r/value	/jointset/back/lumbar_extension/value	/jointset/patellofemoral_r/patellar_flexion_r/value	/jointset/knee_r/knee_flexion_r/value	/jointset/knee_r/knee_adduction_r/value	/jointset/knee_r/knee_rotation_r/value	/jointset/ankle_r/ankle_angle_r/value	/jointset/subtalar_r/subtalar_angle_r/value	/jointset/ground_pelvis/pelvis_tilt/speed	/jointset/ground_pelvis/pelvis_tx/speed	/jointset/ground_pelvis/pelvis_ty/speed	/jointset/hip_r/hip_flexion_r/speed	/jointset/hip_r/hip_adduction_r/speed	/jointset/hip_r/hip_rotation_r/speed	/jointset/back/lumbar_extension/speed	/jointset/patellofemoral_r/patellar_flexion_r/speed	/jointset/knee_r/knee_flexion_r/speed	/jointset/knee_r/knee_adduction_r/speed	/jointset/knee_r/knee_rotation_r/speed	/jointset/ankle_r/ankle_angle_r/speed	/jointset/subtalar_r/subtalar_angle_r/speed	/forceset/tau_hip_flexion_r	/forceset/tau_hip_adduction_r	/forceset/tau_hip_rotation_r	/forceset/tau_knee_flexion_r	/forceset/tau_ankle_angle_r	/forceset/tau_subtalar_angle_r	/forceset/tau_lumbar_extension	lambda_cid13_p0	lambda_cid14_p0	lambda_cid14_p1	lambda_cid14_p2	lambda_cid14_p3	lambda_cid14_p4	lambda_cid14_p5	/jointset/ground_pelvis/pelvis_tilt/accel	/jointset/ground_pelvis/pelvis_tx/accel	/jointset/ground_pelvis/pelvis_ty/accel	/jointset/hip_r/hip_flexion_r/accel	/jointset/hip_r/hip_adduction_r/accel	/jointset/hip_r/hip_rotation_r/accel	/jointset/back/lumbar_extension/accel	/jointset/patellofemoral_r/patellar_flexion_r/accel	/jointset/knee_r/knee_flexion_r/accel	/jointset/knee_r/knee_adduction_r/accel	/jointset/knee_r/knee_rotation_r/accel	/jointset/ankle_r/ankle_angle_r/accel	/jointset/subtalar_r/subtalar_angle_r/accel	gamma_cid13_p0	gamma_cid14_p0	gamma_cid14_p1	gamma_cid14_p2	gamma_cid14_p3	gamma_cid14_p4	gamma_cid14_p5
0	-0.006516697485061148	0.09626121368948611	0.9427240281785635	0.1762555651711513	-0.2321527102596579	-0.2616406387380599	-0.0385979564078546	0.0731781648776267	0.07317816487761825	0.1745329170033404	0.1745327967193617	0.0324735960626065	-0.003451808842977277	0	0	0	0	0	0	0	0	0	0	0	0	0	0.2365748350845328	-0.1474092521832316	-0.04590894190311195	-0.4158163132532096	0.4132714007630285	-0.1645377423022879	-0.1322614315294976	-39.07620631265406	82.30405414983844	-47.13719778834612	-3.345476406065839	-31.86320097907097	-675.0843423619542	43.00673044360806	-2.524817567725802	-1.341737684600461	-0.7443612791683474	10.69789631048935	-0.04763722659276168	2.941789577962746	-5.309048210609509	10.87959126862153	10.87959126862129	-2.83536413994707	0.2187082194935231	3.539032219377468	0.7363581204027393	1.077027087432095e-07	3.004777726510925e-08	-8.179182717636542e-07	2.317221769366065e-07	5.874562515473908e-08	-1.04430695618852e-08	-4.017554322735512e-07
0.01	-0.006634842223932215	0.09619478810070671	0.9426881736704643	0.1767732336022104	-0.2321540111891418	-0.26148497618424	-0.0388667748661076	0.07370664575899269	0.0737066457589913	0.1743921142016681	0.1745308075375543	0.03264555706389069	-0.003415112393657371	-0.02351659528890483	-0.01325569699225294	-0.007157944927382495	0.103090862445652	-0.0003111250484018764	0.03097888796169367	-0.0533963217581089	0.105231142039448	0.1052311420394482	-0.0279107768553242	-0.0003852900447229633	0.03418429200863875	0.007238631186687849	0.2294031179256556	-0.1764755409955853	-0.0437243663521043	-0.4055718611614421	0.3916332602006934	-0.1316481879916532	-0.1266299828958155	-39.09392396801037	76.58928829782057	-34.01156099003672	-5.257951504201046	-28.83855064773036	-675.3877203790313	68.51182676390563	-2.248224630429069	-1.313060843003173	-0.6995696842637953	10.04825964291921	-0.03057511418800897	3.152954291022879	-5.299818674435077	10.27509899626156	10.27509899626159	-2.731571321345307	-0.1651948346203477	3.326956778183271	0.7024153462335795	1.493894196084894e-07	2.3399310602743e-08	-1.13720382064065e-06	2.253146120485869e-07	1.014062436731169e-07	-2.249767134512534e-07	-4.852456028452882e-07
0.02	-0.006984781739886093	0.09599669051471164	0.9425811279961429	0.1783085263439887	-0.2321599683631531	-0.2610241215736484	-0.03965853544514626	0.07527348272567554	0.07527348272568064	0.1739796762588283	0.1745253560115393	0.03315312680257793	-0.003309069686784314	-0.04635895541604192	-0.0263343994431319	-0.01423823324443301	0.2035248621439571	-0.0009312489057623294	0.06103841135338796	-0.1045884241571506	0.2076712170651002	0.2076712170650956	-0.05432702823145791	-0.0006924688160472403	0.06712174748032361	0.01386925151064738	0.2222314007667725	-0.2055418298079505	-0.04153979080104173	-0.3953274090697057	0.3699951196383439	-0.09875863368103485	-0.1209985342621215	-39.14631410001246	70.96922764147864	-20.88592401684506	-7.15148405693966	-26.01599461688952	-674.2451331217944	93.78051689061185	-2.389970535372211	-1.306338776325714	-0.7288299571019501	10.16652376102	-0.1094369883844747	2.757916663962606	-4.868204338796031	10.32137786586241	10.32137786586118	-2.536459044108972	0.2343304741735248	3.289664911986639	0.6147559478570693	1.910761304737693e-07	1.675084394037675e-08	-1.456489369517646e-06	2.189070471605673e-07	1.440668621914946e-07	-4.395103573406215e-07	-5.687357734170254e-07
0.03	-0.007560254644733314	0.09566897215613282	0.9424033594504313	0.1808354795431001	-0.2321735490325665	-0.260269059220202	-0.04095089037980106	0.07785173066384332	0.0778517306638444	0.1733105411761962	0.1745188825735936	0.03398447074461552	-0.003139447542273268	-0.06861806557812274	-0.03914905733182275	-0.02132381599068634	0.3013872654014252	-0.001824256382845313	0.08982355064557404	-0.1535381082142287	0.3075179409779042	0.3075179409779272	-0.07924427425074879	-0.0006203066088094874	0.09897940078091509	0.01997688866065327	0.2156353078044884	-0.1906796070363924	-0.04002454762789524	-0.3880215686345634	0.3622593541119788	-0.1074871844621073	-0.1157550803859497	-39.23189587585932	68.22607918190441	-25.14840175773672	-6.481795320433632	-24.32279769250849	-673.3368778366116	84.06710532784673	-2.126233641564361	-1.259968068407964	-0.6997622161778203	9.524325956831847	-0.08531258252459953	2.916309234753637	-4.856682255129836	9.747216831656575	9.747216831661447	-2.431209741746119	-0.1089599370034227	3.108701715571245	0.5968200286612789	2.061799317336444e-07	4.47910508692562e-09	-1.581812025913061e-06	1.900494325056146e-07	1.698795641143531e-07	-6.001774765405229e-07	-5.856386922156329e-07
0.04	-0.008354789128192763	0.09521491946401356	0.9421544671206987	0.1843267022445336	-0.2321972757677823	-0.2592306461392591	-0.04272240851822025	0.08141462527668256	0.08141462527668236	0.1723998631612006	0.1745126069514866	0.0351293684549533	-0.002911138540244473	-0.09017127113773089	-0.051601266151222	-0.02846299004864003	0.3963787626077563	-0.002960462066104612	0.1177085568540396	-0.2004210649099457	0.4046005519973956	0.4046005519974514	-0.1026356147063244	-0.0006529056416618164	0.1298325011405395	0.02560662301421889	0.2090392148422645	-0.1758173842648255	-0.03850930445479155	-0.380715728199376	0.3545235885856308	-0.1162157352431659	-0.1105116265097435	-39.34866932982296	65.56976183279085	-29.4205297179989	-5.782177247338575	-22.81277307202393	-671.0984201184115	74.11486274531453	-2.248789614877631	-1.23384896246744	-0.7395482194420184	9.592342550792628	-0.1580766296197285	2.577890047218396	-4.454858866523768	9.768555287199922	9.768555287199717	-2.231277931365934	0.2133782261556169	3.088754323793166	0.5191753885690129	2.207356317645421e-07	-7.908577523042731e-09	-1.703135447411949e-06	1.607289302266014e-07	1.953448863135926e-07	-7.597339457468272e-07	-6.011686779879904e-07
0.05	-0.009362071434410046	0.09463813956860399	0.9418336065910481	0.1887547344816721	-0.232233656635898	-0.2579199072107557	-0.04495179337282958	0.08593560553086706	0.08593560553086632	0.1712632375069816	0.1745075328425271	0.03657798569463773	-0.002628922834509705	-0.1111744663663587	-0.06369296313805091	-0.03573591076834583	0.4887579239463086	-0.004339048677204319	0.144277759426348	-0.2451169509273259	0.4991315489814364	0.4991315489814229	-0.1244418684542275	-0.0003924993555665779	0.1597222763830035	0.0307754487105761	0.201998925903704	-0.1736641626218424	-0.03663367943390983	-0.3739295947806912	0.3441879981000688	-0.1125524295674339	-0.10497248808214	-39.49430829571607	62.52681391848299	-28.44527909320501	-5.842939462696441	-21.29474215963486	-669.2167782315835	74.65692826775714	-2.009455872030613	-1.187528323259336	-0.7253364673940905	8.990243314410415	-0.1314628034286354	2.672284945909319	-4.426110206573401	9.225735160580292	9.22573516056999	-2.118407072619287	-0.07212263779163788	2.913827214117752	0.5063263404790705	2.207342118542271e-07	-1.518987846128122e-08	-1.693397575541743e-06	1.606829192724196e-07	2.050017879775491e-07	-8.50370210754338e-07	-6.085960386203697e-07
0.06	-0.01057605997195168	0.09394230305203236	0.9414391823603684	0.1940924664100014	-0.2322845659954392	-0.2563483063397958	-0.04761796843505851	0.0913879684062076	0.09138796840620715	0.1699159277200617	0.1745041639028933	0.03832044830467576	-0.002296900835749434	-0.1315125174019877	-0.07541259038364249	-0.04317573025445692	0.5783187008458196	-0.005866160351244126	0.1698809453455455	-0.2877791064338301	0.5908770762284428	0.5908770762283587	-0.1447724412468054	-0.0003118717745954669	0.1886015752112558	0.03556788161933457	0.1949586369651658	-0.1715109409788598	-0.03475805441302247	-0.3671434613619985	0.3338524076145091	-0.108889123891702	-0.09943334965451923	-39.66607686940565	59.56121133906146	-27.47102930906134	-5.886928463651105	-19.94480371051222	-666.1587853742491	75.00006109350082	-2.115760776277828	-1.159435014220018	-0.7729279727230749	9.028665662984404	-0.1877816422077374	2.384686716596133	-4.048112764348526	9.211461339793074	9.211461339792585	-1.936141740300934	0.1774224851308649	2.886659040950764	0.4438968310492667	2.201198605779662e-07	-2.225617385544686e-08	-1.678141333424417e-06	1.618695184792834e-07	2.139930719347568e-07	-9.381045724271628e-07	-6.156822360889603e-07
0.07000000000000001	-0.0119907959120238	0.09313112181839532	0.9409692709097265	0.2003130464415258	-0.2323514611339078	-0.2545274202510233	-0.05070010693517483	0.09774513999829912	0.09774513999829525	0.168372683131138	0.1745027639743956	0.04034702037785888	-0.001918692348652434	-0.1513252024980604	-0.08675875566536007	-0.05084723112811949	0.665330883447012	-0.007522874687548938	0.1941297844570061	-0.3283279781361357	0.6800936812498457	0.6800936812498543	-0.1636400813514135	-7.3415707892697e-06	0.2165475340148921	0.04002785675490588	0.1877270601037274	-0.1669385848277957	-0.03282585360811866	-0.3611903949023351	0.3247181743377787	-0.1071173076231272	-0.09377275853188687	-39.860975612582	56.88107662049045	-27.27190168277873	-5.803194863997484	-18.6987686316292	-663.544078322758	73.73716448648621	-1.897577967303263	-1.112429275903128	-0.7705505171738705	8.467536695048409	-0.1563175068099173	2.420079708500626	-4.010182055096333	8.707181925813684	8.7071819258279	-1.826863526147571	-0.04882589387913767	2.723805929133624	0.4399100792155199	2.044062764871179e-07	-2.569001003880564e-08	-1.528827092976116e-06	1.664386934570853e-07	2.075440121187783e-07	-9.701956219257121e-07	-5.880437971383356e-07
0.08	-0.01360036982126688	0.09220843453378996	0.9404213865758506	0.2073897567263335	-0.2324352636512332	-0.2524690263311221	-0.05417811568869971	0.1049805620091057	0.1049805620091036	0.166647804465054	0.1745032505115519	0.04264810036489071	-0.001497311665318893	-0.1704801112353782	-0.09771380057731242	-0.05877030690121791	0.7495447515026781	-0.009247636122577096	0.2173825115716505	-0.3669531571154258	0.7665271599712409	0.7665271599713447	-0.1810992566802974	6.542135763101117e-05	0.2435031579810705	0.04420232086665644	0.1804954832423097	-0.1623662286767284	-0.0308936528032059	-0.3552373284426586	0.3155839410610548	-0.1053454913545477	-0.08811216740924434	-40.07568234819824	54.26978808021324	-27.07495155720658	-5.702856707921134	-17.59879482327037	-659.8806959652103	72.29242254671748	-1.984205504526817	-1.081210940267017	-0.8232429526102463	8.469002753879167	-0.2013910619523939	2.185464317232828	-3.66337421974539	8.654836079791554	8.654836079791576	-1.654448785156113	0.1310690300537309	2.688592073459149	0.3867946262851187	1.877185483437156e-07	-2.888949401501557e-08	-1.370863949409687e-06	1.712260991297866e-07	2.000988010916266e-07	-9.986967803162436e-07	-5.581650590638906e-07
